<svg width="27" height="96" viewBox="0 0 27 96" fill="none" xmlns="http://www.w3.org/2000/svg">
<path d="M0.333344 93.3333C0.333344 92.5973 0.632011 91.9307 1.11414 91.4475C1.59734 90.9653 2.26294 90.6667 3.00001 90.6667H21.6667V72C21.6667 70.528 22.8603 69.3333 24.3333 69.3333C25.0693 69.3333 25.736 69.632 26.2181 70.1141C26.7013 70.5973 27 71.264 27 72V93.3333C27 94.8064 25.8053 96 24.3333 96H3.00001C1.52694 96 0.333344 94.8064 0.333344 93.3333Z" fill="white"/>
<path d="M24.3333 26.6667C23.5973 26.6667 22.9307 26.368 22.4475 25.8859C21.9653 25.4027 21.6667 24.7371 21.6667 24V5.33333H3.00001C1.52801 5.33333 0.333344 4.13973 0.333344 2.66667C0.333344 1.93067 0.632011 1.264 1.11414 0.781867C1.59734 0.298667 2.26401 0 3.00001 0H24.3333C25.8064 0 27 1.19467 27 2.66667V24C27 25.4731 25.8064 26.6667 24.3333 26.6667Z" fill="white"/>
<path d="M11.1248 21.0837C14.0014 21.0837 16.3333 18.7518 16.3333 15.8752C16.3333 12.9986 14.0014 10.6667 11.1248 10.6667C8.24821 10.6667 5.91628 12.9986 5.91628 15.8752C5.91628 18.7518 8.24821 21.0837 11.1248 21.0837Z" fill="white"/>
</svg>
