<svg width="79" height="33" viewBox="0 0 79 33" fill="none" xmlns="http://www.w3.org/2000/svg">
<path d="M15.0332 22.319V26H4.99915V22.319H15.0332ZM6.70331 6.14999V26H1.91804V6.14999H6.70331ZM28.9768 6.14999V26H24.2051V6.14999H28.9768ZM46.6967 21.3238L50.8276 6.14999H56.1855L49.4915 26H46.0287L46.6967 21.3238ZM42.9476 6.14999L47.0785 21.3238L47.7737 26H44.27L37.617 6.14999H42.9476ZM78.1454 22.319V26H67.566V22.319H78.1454ZM69.2701 6.14999V26H64.4848V6.14999H69.2701ZM76.782 14.03V17.5883H67.566V14.03H76.782ZM78.1863 6.14999V9.8446H67.566V6.14999H78.1863Z" fill="white"/>
</svg>
