<svg width="96" height="96" viewBox="0 0 96 96" fill="none" xmlns="http://www.w3.org/2000/svg">
<path d="M26.6667 2.66667C26.6667 3.40267 26.368 4.06933 25.8859 4.55253C25.4027 5.03467 24.7371 5.33333 24 5.33333H5.33333V24C5.33333 25.472 4.13973 26.6667 2.66667 26.6667C1.93067 26.6667 1.264 26.368 0.781867 25.8859C0.298667 25.4027 0 24.736 0 24V2.66667C0 1.1936 1.19467 0 2.66667 0H24C25.4731 0 26.6667 1.1936 26.6667 2.66667Z" fill="white"/>
<path d="M2.66667 69.3333C3.40267 69.3333 4.06933 69.632 4.55253 70.1141C5.03467 70.5973 5.33333 71.2629 5.33333 72V90.6667H24C25.472 90.6667 26.6667 91.8603 26.6667 93.3333C26.6667 94.0693 26.368 94.736 25.8859 95.2181C25.4027 95.7013 24.736 96 24 96H2.66667C1.1936 96 0 94.8053 0 93.3333V72C0 70.5269 1.1936 69.3333 2.66667 69.3333Z" fill="white"/>
<path d="M69.3333 93.3333C69.3333 92.5973 69.632 91.9307 70.1141 91.4475C70.5973 90.9653 71.2629 90.6667 72 90.6667H90.6667V72C90.6667 70.528 91.8603 69.3333 93.3333 69.3333C94.0693 69.3333 94.736 69.632 95.2181 70.1141C95.7013 70.5973 96 71.264 96 72V93.3333C96 94.8064 94.8053 96 93.3333 96H72C70.5269 96 69.3333 94.8064 69.3333 93.3333Z" fill="white"/>
<path d="M93.3333 26.6667C92.5973 26.6667 91.9307 26.368 91.4475 25.8859C90.9653 25.4027 90.6667 24.7371 90.6667 24V5.33333H72C70.528 5.33333 69.3333 4.13973 69.3333 2.66667C69.3333 1.93067 69.632 1.264 70.1141 0.781867C70.5973 0.298667 71.264 0 72 0H93.3333C94.8064 0 96 1.19467 96 2.66667V24C96 25.4731 94.8064 26.6667 93.3333 26.6667Z" fill="white"/>
<path d="M80.1248 21.0837C83.0014 21.0837 85.3333 18.7518 85.3333 15.8752C85.3333 12.9986 83.0014 10.6667 80.1248 10.6667C77.2482 10.6667 74.9163 12.9986 74.9163 15.8752C74.9163 18.7518 77.2482 21.0837 80.1248 21.0837Z" fill="white"/>
<path d="M23.0332 54.319V58H12.9992V54.319H23.0332ZM14.7033 38.15V58H9.91804V38.15H14.7033ZM36.9768 38.15V58H32.2051V38.15H36.9768ZM54.6967 53.3238L58.8276 38.15H64.1855L57.4915 58H54.0287L54.6967 53.3238ZM50.9476 38.15L55.0785 53.3238L55.7737 58H52.27L45.617 38.15H50.9476ZM86.1454 54.319V58H75.566V54.319H86.1454ZM77.2701 38.15V58H72.4848V38.15H77.2701ZM84.782 46.03V49.5883H75.566V46.03H84.782ZM86.1863 38.15V41.8446H75.566V38.15H86.1863Z" fill="white"/>
</svg>
