<svg width="27" height="96" viewBox="0 0 27 96" fill="none" xmlns="http://www.w3.org/2000/svg">
<path d="M26.6667 2.66667C26.6667 3.40267 26.368 4.06933 25.8859 4.55253C25.4027 5.03467 24.7371 5.33333 24 5.33333H5.33333V24C5.33333 25.472 4.13973 26.6667 2.66667 26.6667C1.93067 26.6667 1.264 26.368 0.781867 25.8859C0.298667 25.4027 0 24.736 0 24V2.66667C0 1.1936 1.19467 0 2.66667 0H24C25.4731 0 26.6667 1.1936 26.6667 2.66667Z" fill="white"/>
<path d="M2.66667 69.3333C3.40267 69.3333 4.06933 69.632 4.55253 70.1141C5.03467 70.5973 5.33333 71.2629 5.33333 72V90.6667H24C25.472 90.6667 26.6667 91.8603 26.6667 93.3333C26.6667 94.0693 26.368 94.736 25.8859 95.2181C25.4027 95.7013 24.736 96 24 96H2.66667C1.1936 96 0 94.8053 0 93.3333V72C0 70.5269 1.1936 69.3333 2.66667 69.3333Z" fill="white"/>
</svg>
